<svg xmlns="http://www.w3.org/2000/svg" xmlns:xlink="http://www.w3.org/1999/xlink" width="15.519989013671875" height="20" viewBox="0 0 15.519989013671875 20" fill="none">
<path d="M1.5132 19.838L13.58 11.8L13.58 19.0476C13.58 19.5762 14.0116 20 14.55 20C15.0836 20 15.52 19.5762 15.52 19.0476L15.52 0.9524C15.52 0.4286 15.0836 0 14.55 0C14.0116 0 13.58 0.4286 13.58 0.9524L13.58 8.2048L1.5132 0.1666C1.21739 -0.0334 0.8342 -0.0524 0.514022 0.1096C0.198811 0.2762 0 0.6 0 0.9524L0 19.0476C0 19.4 0.198811 19.7238 0.514022 19.8904C0.654789 19.962 0.8148 20 0.97 20C1.15919 20 1.34822 19.9476 1.5132 19.838Z"   fill="#DADADA" >
</path>
</svg>
