<svg xmlns="http://www.w3.org/2000/svg" xmlns:xlink="http://www.w3.org/1999/xlink" width="15.520004272460938" height="20" viewBox="0 0 15.520004272460938 20" fill="none">
<path d="M1.94 0.9524C1.94 0.4286 1.50544 0 0.97 0C0.434094 0 0 0.4286 0 0.9524L0 19.0476C0 19.5762 0.434094 20 0.97 20C1.50544 20 1.94 19.5762 1.94 19.0476L1.94 11.8L14.0054 19.838C14.1688 19.9476 14.3589 20 14.55 20C14.7057 20 14.8618 19.962 15.004 19.8904C15.3217 19.7238 15.52 19.4 15.52 19.0476L15.52 0.9524C15.52 0.6 15.3217 0.2762 15.004 0.1096C14.6867 -0.0524 14.3026 -0.0334 14.0054 0.1666L1.94 8.2048L1.94 0.9524Z"   fill="#DADADA" >
</path>
</svg>
