<?xml version="1.0" standalone="no"?><!DOCTYPE svg PUBLIC "-//W3C//DTD SVG 1.1//EN" "http://www.w3.org/Graphics/SVG/1.1/DTD/svg11.dtd"><svg t="1724228336558" class="icon" viewBox="0 0 1024 1024" version="1.1" xmlns="http://www.w3.org/2000/svg" p-id="12616" xmlns:xlink="http://www.w3.org/1999/xlink" width="32" height="32"><path d="M106.666667 149.333333h810.666666c12.8 0 21.333333-8.533333 21.333334-21.333333s-8.533333-21.333333-21.333334-21.333333H106.666667c-12.8 0-21.333333 8.533333-21.333334 21.333333s8.533333 21.333333 21.333334 21.333333z m810.666666 725.333334H106.666667c-12.8 0-21.333333 8.533333-21.333334 21.333333s8.533333 21.333333 21.333334 21.333333h810.666666c12.8 0 21.333333-8.533333 21.333334-21.333333s-8.533333-21.333333-21.333334-21.333333z m-85.333333-661.333334H192c-59.733333 0-106.666667 46.933333-106.666667 106.666667v384c0 59.733333 46.933333 106.666667 106.666667 106.666667h640c59.733333 0 106.666667-46.933333 106.666667-106.666667V320c0-59.733333-46.933333-106.666667-106.666667-106.666667z m64 490.666667c0 36.266667-27.733333 64-64 64H192c-36.266667 0-64-27.733333-64-64V320c0-36.266667 27.733333-64 64-64h640c36.266667 0 64 27.733333 64 64v384zM616.533333 484.266667l-140.8-87.466667c-4.266667-2.133333-10.666667-4.266667-17.066666-4.266667-17.066667 0-32 14.933333-32 32v174.933334c0 17.066667 14.933333 32 32 32 6.4 0 12.8-2.133333 17.066666-4.266667l140.8-87.466667c8.533333-6.4 14.933333-17.066667 14.933334-27.733333s-6.4-21.333333-14.933334-27.733333z m-12.8 36.266666l-140.8 87.466667c-2.133333 2.133333-4.266667 2.133333-6.4 2.133333-6.4 0-10.666667-4.266667-10.666666-10.666666v-174.933334c0-6.4 4.266667-10.666667 10.666666-10.666666 2.133333 0 4.266667 0 6.4 2.133333l140.8 87.466667c6.4 4.266667 6.4 12.8 0 17.066666z" p-id="12617" fill="#ffffff"></path></svg>