<?xml version="1.0" standalone="no"?><!DOCTYPE svg PUBLIC "-//W3C//DTD SVG 1.1//EN" "http://www.w3.org/Graphics/SVG/1.1/DTD/svg11.dtd"><svg t="1724228305023" class="icon" viewBox="0 0 1024 1024" version="1.1" xmlns="http://www.w3.org/2000/svg" p-id="10643" xmlns:xlink="http://www.w3.org/1999/xlink" width="32" height="32"><path d="M139.269 915.72h745.463v41.75H139.269z" fill="#ffffff" p-id="10644"></path><path d="M614.916 470.837c19.148-10.16 36.885-23.229 52.647-38.991C709.116 390.293 732 335.046 732 276.282s-22.884-114.011-64.437-155.563C626.011 79.166 570.764 56.282 512 56.282c-58.764 0-114.011 22.884-155.563 64.437C314.884 162.271 292 217.518 292 276.282s22.884 114.011 64.437 155.563c15.775 15.776 33.528 28.853 52.694 39.016a356.666 356.666 0 0 0-38.728 14.977c-44 20.016-83.618 48.533-117.753 84.757-33.849 35.922-60.472 77.464-79.127 123.472C154.265 741.561 144.5 791.46 144.5 842.38v21h42v-21c0-45.484 8.729-90.074 25.944-132.53 16.693-41.168 40.504-78.329 70.772-110.45 30.378-32.238 65.563-57.583 104.577-75.331 40.532-18.438 83.407-27.786 127.435-27.786 55.281 0 96.981 12.966 139.437 43.354l17.076 12.223 24.445-34.152-17.075-12.223c-20.897-14.959-41.991-26.403-64.195-34.648zM334 276.282c0-98.149 79.851-178 178-178s178 79.851 178 178-79.851 178-178 178-178-79.85-178-178zM802.181 411.324c-40.804 0-74 33.196-74 74v155.999c0 33.509 22.395 61.871 52.999 70.947V870.5h42V712.27c30.605-9.075 53.001-37.437 53.001-70.947V485.324c0-40.803-33.197-74-74-74z m32 229.999c0 15.174-10.621 27.906-24.816 31.177h-14.368c-14.195-3.27-24.816-16.003-24.816-31.177V485.324c0-17.645 14.355-32 32-32s32 14.355 32 32v155.999z" fill="#ffffff" p-id="10645"></path></svg>